<svg width="20" height="21" viewBox="0 0 20 21" fill="none" xmlns="http://www.w3.org/2000/svg">
<g clip-path="url(#clip0_2_580)">
<path d="M10.835 5.92336C10.835 5.4831 11.0101 5.061 11.3213 4.74969C11.6327 4.43838 12.0548 4.26336 12.495 4.26336H14.155V2.60336L12.495 2.60336C11.6145 2.60336 10.7703 2.9534 10.1477 3.57602C9.52504 4.19864 9.17502 5.04284 9.17502 5.92336L9.17502 8.41336C9.17502 8.87177 8.80343 9.24336 8.34502 9.24336H6.68502L6.68502 10.9034H8.34502C8.80343 10.9034 9.17502 11.275 9.17502 11.7334V17.5434H10.835V11.7334C10.835 11.275 11.2066 10.9034 11.665 10.9034H13.5074L13.9224 9.24336H11.665C11.2066 9.24336 10.835 8.87177 10.835 8.41336L10.835 5.92336ZM12.495 7.58336L14.985 7.58336C15.2406 7.58336 15.4819 7.70126 15.6391 7.90272C15.7963 8.10411 15.8518 8.3665 15.7899 8.61439L14.9599 11.9344C14.8675 12.3039 14.5359 12.5634 14.155 12.5634H12.495V18.3734C12.495 18.8318 12.1234 19.2034 11.665 19.2034H8.34502C7.88663 19.2034 7.51502 18.8318 7.51502 18.3734L7.51502 12.5634H5.85502C5.39663 12.5634 5.02502 12.1918 5.02502 11.7334L5.02502 8.41336L5.02907 8.32825C5.07168 7.90982 5.42535 7.58336 5.85502 7.58336L7.51502 7.58336V5.92336C7.51502 4.60258 8.04007 3.33627 8.974 2.40234C9.90791 1.46841 11.1742 0.943359 12.495 0.943359L14.985 0.943359L15.0701 0.94741C15.4886 0.990014 15.815 1.34368 15.815 1.77336L15.815 5.09336C15.815 5.55175 15.4434 5.92336 14.985 5.92336L12.495 5.92336L12.495 7.58336Z" fill="#171A1F"/>
</g>
<defs>
<clipPath id="clip0_2_580">
<rect width="20" height="20" fill="white" transform="translate(0 0.0732422)"/>
</clipPath>
</defs>
</svg>
