<svg width="20" height="21" viewBox="0 0 20 21" fill="none" xmlns="http://www.w3.org/2000/svg">
<g clip-path="url(#clip0_2_599)">
<path d="M11.6601 18.3734V15.0534C11.6601 15.0227 11.6616 14.9922 11.665 14.9617C11.7564 14.1386 11.5201 13.3128 11.0077 12.6622C10.8109 12.4125 10.7749 12.0721 10.9136 11.7861C11.0524 11.5 11.3423 11.3184 11.6601 11.3184C13.8398 11.3183 15.8101 9.89466 15.8101 7.58336C15.8101 7.56578 15.8106 7.54822 15.8118 7.53067C15.866 6.68348 15.629 5.8518 15.1349 5.16144C14.9943 4.96497 14.9465 4.71697 15.0036 4.48221C15.1338 3.9477 15.1774 3.39811 15.139 2.85301C14.8123 3.01076 14.3717 3.26679 13.8178 3.68219C13.6547 3.80453 13.4533 3.86245 13.2521 3.84593L13.1653 3.83377C11.2067 3.46284 9.19205 3.43944 7.22645 3.76406L6.83415 3.83377C6.63364 3.87168 6.42721 3.83457 6.25379 3.73083L6.18165 3.68219C5.6212 3.26188 5.17696 3.00456 4.84911 2.84734C4.80709 3.3898 4.85455 3.937 4.99339 4.46924C5.04771 4.67793 5.01832 4.89841 4.91396 5.08445L4.86452 5.16226C4.37218 5.84929 4.13342 6.68562 4.18852 7.52905C4.1897 7.54707 4.19014 7.5653 4.19014 7.58336C4.19014 9.89466 6.16041 11.3184 8.34014 11.3184C8.65869 11.3184 8.94903 11.5008 9.08747 11.7876C9.22583 12.0747 9.18782 12.4161 8.98937 12.6654C8.73273 12.988 8.54382 13.3544 8.43335 13.7444C8.3221 14.137 8.28831 14.5512 8.33446 14.9601L8.34014 15.0534V18.3734C8.34014 18.8317 7.96846 19.2033 7.51014 19.2034C7.05174 19.2034 6.68014 18.8318 6.68014 18.3734L6.68014 15.0898C6.6193 14.4878 6.67004 13.8762 6.83577 13.2913C6.87996 13.1353 6.93241 12.9823 6.9922 12.8324C4.66774 12.3319 2.55775 10.5441 2.53176 7.63767L2.52203 7.40747C2.49964 6.38824 2.77165 5.38564 3.30259 4.51787C3.10661 3.54025 3.13415 2.5333 3.38689 1.56424L3.43309 1.43212C3.56532 1.1385 3.85967 0.943359 4.19014 0.943359V1.77336C4.19014 0.978917 4.18955 0.94482 4.19014 0.943359H4.21203C4.22008 0.94355 4.22913 0.943716 4.23877 0.944173C4.25806 0.945077 4.28049 0.946646 4.30605 0.949037C4.35755 0.953859 4.42175 0.963089 4.49815 0.977406C4.6513 1.00612 4.85353 1.0579 5.10362 1.15167C5.54669 1.31782 6.13966 1.61422 6.88278 2.13973C8.9443 1.7908 11.0552 1.79085 13.1167 2.13973C13.8599 1.61412 14.4528 1.31786 14.8958 1.15167C15.146 1.05786 15.3482 1.00613 15.5013 0.977406C15.5778 0.963064 15.6419 0.953867 15.6934 0.949037C15.7192 0.946613 15.7421 0.945077 15.7615 0.944173C15.7711 0.943716 15.7802 0.94355 15.7882 0.943359H15.8085C15.8091 0.943359 15.8101 0.943359 15.8101 1.57559V0.943359C16.1929 0.943434 16.5261 1.20537 16.6167 1.57721C16.8511 2.5404 16.8761 3.54074 16.6937 4.51219C17.2679 5.44821 17.5389 6.5348 17.4685 7.63605C17.4432 10.5457 15.3294 12.335 13.0024 12.8341C13.2847 13.5435 13.3967 14.3157 13.3201 15.0882V18.3734C13.3201 18.8317 12.9485 19.2033 12.4901 19.2034C12.0317 19.2034 11.6601 18.8318 11.6601 18.3734Z" fill="#171A1F"/>
<path d="M1.67497 12.5811C2.39309 12.5811 2.92215 12.9497 3.29931 13.2757C3.48725 13.4382 3.67421 13.6239 3.83346 13.7782C4.00173 13.9413 4.15583 14.0865 4.31735 14.2159C4.63147 14.4676 4.94683 14.6375 5.33945 14.6893C5.73861 14.7419 6.31026 14.6841 7.1486 14.3124C7.56762 14.1266 8.05782 14.3157 8.24364 14.7347C8.42943 15.1537 8.24037 15.6439 7.82134 15.8298C6.78808 16.2879 5.90478 16.4377 5.12304 16.3347C4.33489 16.2308 3.74272 15.882 3.27985 15.5112C3.05299 15.3294 2.85135 15.1373 2.67842 14.9697C2.49643 14.7934 2.356 14.6548 2.21398 14.5321C1.93104 14.2875 1.78671 14.2411 1.67497 14.2411C1.21658 14.2411 0.844971 13.8695 0.844971 13.4111C0.844971 12.9526 1.21658 12.5811 1.67497 12.5811Z" fill="#171A1F"/>
</g>
<defs>
<clipPath id="clip0_2_599">
<rect width="20" height="20" fill="white" transform="translate(0 0.0732422)"/>
</clipPath>
</defs>
</svg>
