<svg width="32" height="33" viewBox="0 0 32 33" fill="none" xmlns="http://www.w3.org/2000/svg">
<rect y="0.0732422" width="32" height="32" stroke="white"/>
<path d="M12.6332 21.6476C12.8848 20.7088 13.8498 20.1516 14.7887 20.4032C15.7276 20.6548 16.2848 21.6198 16.0332 22.5586L14.7011 27.5302C14.5595 28.0583 14.0167 28.3717 13.4886 28.2302L12.0011 27.8316C11.473 27.6901 11.1596 27.1473 11.3011 26.6192L12.6332 21.6476Z" fill="#0F74C7"/>
<path d="M19.0928 19.0965C19.7801 18.4092 20.8946 18.4092 21.5819 19.0965L25.3321 22.8467C25.7188 23.2334 25.7188 23.8603 25.3321 24.2468L24.2432 25.3357C23.8566 25.7224 23.2298 25.7224 22.8431 25.3357L19.0928 21.5855C18.4055 20.8982 18.4055 19.7839 19.0928 19.0965Z" fill="#0F74C7"/>
<path d="M9.81523 15.8075C10.7541 15.5559 11.7192 16.1132 11.9707 17.052C12.2223 17.9909 11.6652 18.956 10.7263 19.2076L5.43425 20.6256C4.90612 20.767 4.36325 20.4537 4.22174 19.9255L3.82317 18.438C3.68165 17.9099 3.99506 17.367 4.52319 17.2256L9.81523 15.8075Z" fill="#0F74C7"/>
<path d="M20.5796 1.76753C21.1077 1.90904 21.4211 2.45189 21.2796 2.98002L17.666 16.466C17.4145 17.4048 16.4494 17.962 15.5105 17.7105C14.5716 17.4589 14.0145 16.4938 14.2659 15.555L17.8794 2.06898C18.021 1.54085 18.5638 1.22743 19.092 1.36894L20.5796 1.76753Z" fill="#0F74C7"/>
<path d="M28.3225 13.4676C28.4639 13.9957 28.1505 14.5386 27.6224 14.6801L22.3984 16.0798C21.4596 16.3313 20.4945 15.7742 20.243 14.8353C19.9914 13.8964 20.5485 12.9313 21.4874 12.6798L26.7114 11.2801C27.2395 11.1386 27.7824 11.452 27.9238 11.9801L28.3225 13.4676Z" fill="#0F74C7"/>
<path d="M12.9709 10.4859C13.6583 11.1732 13.6583 12.2875 12.9709 12.9749C12.2836 13.6622 11.1693 13.6622 10.482 12.9749L4.28264 6.77552C3.89602 6.3889 3.89602 5.76206 4.28264 5.37545L5.37153 4.28654C5.75816 3.89993 6.38498 3.89993 6.77161 4.28654L12.9709 10.4859Z" fill="#0F74C7"/>
</svg>
