<svg width="20" height="21" viewBox="0 0 20 21" fill="none" xmlns="http://www.w3.org/2000/svg">
<g clip-path="url(#clip0_2_590)">
<path d="M17.48 11.7382C17.48 10.6376 17.0424 9.5823 16.2642 8.80401C15.4859 8.02577 14.4307 7.58822 13.33 7.58822C12.2294 7.58822 11.1741 8.02577 10.3958 8.80401C9.6176 9.5823 9.18002 10.6376 9.18002 11.7382L9.18002 16.7182H10.84L10.84 11.7382C10.84 11.0778 11.1025 10.4447 11.5695 9.97771C12.0365 9.51075 12.6696 9.24822 13.33 9.24822C13.9905 9.24822 14.6236 9.51075 15.0905 9.97771C15.5575 10.4447 15.82 11.0778 15.82 11.7382V16.7182H17.48V11.7382ZM19.14 17.5482C19.14 18.0066 18.7684 18.3782 18.31 18.3782H14.99C14.5316 18.3782 14.16 18.0066 14.16 17.5482L14.16 11.7382C14.16 11.5181 14.0725 11.307 13.9168 11.1514C13.7612 10.9957 13.5501 10.9082 13.33 10.9082C13.1099 10.9082 12.8988 10.9957 12.7432 11.1514C12.5875 11.307 12.5 11.5181 12.5 11.7382L12.5 17.5482C12.5 18.0066 12.1284 18.3782 11.67 18.3782H8.35002C7.89163 18.3782 7.52002 18.0066 7.52002 17.5482L7.52002 11.7382C7.52002 10.1973 8.13177 8.71918 9.22135 7.62956C10.311 6.53997 11.7891 5.92822 13.33 5.92822C14.8709 5.92822 16.3491 6.53997 17.4387 7.62956C18.5283 8.71918 19.14 10.1973 19.14 11.7382L19.14 17.5482Z" fill="#171A1F"/>
<path d="M4.98997 6.76318L5.07507 6.76723C5.4935 6.80984 5.81997 7.16351 5.81997 7.59318L5.81997 17.5532C5.81997 18.0116 5.44836 18.3832 4.98997 18.3832H1.66997C1.21157 18.3832 0.839966 18.0116 0.839966 17.5532L0.839966 7.59318L0.844016 7.50808C0.88662 7.08965 1.24029 6.76318 1.66997 6.76318L4.98997 6.76318ZM2.49997 16.7232H4.15997L4.15997 8.42318H2.49997L2.49997 16.7232Z" fill="#171A1F"/>
<path d="M4.15997 3.40309C4.15997 2.94469 3.78836 2.57309 3.32997 2.57309C2.87157 2.57309 2.49997 2.94469 2.49997 3.40309C2.49997 3.86148 2.87157 4.23309 3.32997 4.23309C3.78836 4.23309 4.15997 3.86148 4.15997 3.40309ZM5.81997 3.40309C5.81997 4.77827 4.70515 5.89309 3.32997 5.89309C1.95478 5.89309 0.839966 4.77827 0.839966 3.40309C0.839966 2.0279 1.95478 0.913086 3.32997 0.913086C4.70515 0.913086 5.81997 2.0279 5.81997 3.40309Z" fill="#171A1F"/>
</g>
<defs>
<clipPath id="clip0_2_590">
<rect width="20" height="20" fill="white" transform="translate(0 0.0732422)"/>
</clipPath>
</defs>
</svg>
