<svg width="12" height="13" viewBox="0 0 12 13" fill="none" xmlns="http://www.w3.org/2000/svg">
<g clip-path="url(#clip0_2_211)">
<path d="M13.9397 11.2402L0.740417 11.2402C0.219718 11.2402 -0.202393 11.6623 -0.202393 12.183V12.183C-0.202393 12.7037 0.219718 13.1259 0.740417 13.1259L13.9397 13.1259C14.4604 13.1259 14.8825 12.7037 14.8825 12.183C14.8825 11.6623 14.4604 11.2402 13.9397 11.2402Z" fill="#DEE1E6"/>
<path d="M11.7286 11.2402L6.07172 11.2402C5.55102 11.2402 5.12891 11.6623 5.12891 12.183V12.183C5.12891 12.7037 5.55102 13.1259 6.07172 13.1259L11.7286 13.1259C12.2493 13.1259 12.6714 12.7037 12.6714 12.183C12.6714 11.6623 12.2493 11.2402 11.7286 11.2402Z" fill="#DEE1E6"/>
</g>
<defs>
<clipPath id="clip0_2_211">
<rect width="12" height="12" fill="white" transform="translate(0 0.0732422)"/>
</clipPath>
</defs>
</svg>
