<svg width="16" height="17" viewBox="0 0 16 17" fill="none" xmlns="http://www.w3.org/2000/svg">
<path d="M10.6225 10.6956C10.8678 10.4503 11.2557 10.4352 11.5189 10.6499L11.57 10.6956L14.4776 13.6034L14.5241 13.6544C14.7385 13.9175 14.7228 14.3055 14.4776 14.5507C14.2324 14.796 13.8444 14.8116 13.5812 14.5972L13.5302 14.5507L10.6225 11.6431L10.5768 11.592C10.3621 11.3288 10.3772 10.9409 10.6225 10.6956Z" fill="#565D6D"/>
<path d="M12.02 7.40305C12.02 4.81283 9.92027 2.71305 7.33005 2.71305C4.73984 2.71305 2.64005 4.81283 2.64005 7.40305C2.64005 9.99327 4.73984 12.093 7.33005 12.093C9.92027 12.093 12.02 9.99327 12.02 7.40305ZM13.36 7.40305C13.36 10.7333 10.6604 13.433 7.33005 13.433C3.99977 13.433 1.30005 10.7333 1.30005 7.40305C1.30005 4.07277 3.99977 1.37305 7.33005 1.37305C10.6604 1.37305 13.36 4.07277 13.36 7.40305Z" fill="#565D6D"/>
</svg>
