<svg width="16" height="17" viewBox="0 0 16 17" fill="none" xmlns="http://www.w3.org/2000/svg">
<g clip-path="url(#clip0_2_526)">
<path d="M1.30005 12.7635L1.30005 3.38354C1.30005 2.85045 1.51197 2.33935 1.88892 1.9624C2.26587 1.58546 2.77696 1.37354 3.31005 1.37354L8.00005 1.37354C8.37009 1.37354 8.67005 1.67351 8.67005 2.04354C8.67005 2.41356 8.37009 2.71354 8.00005 2.71354L3.31005 2.71354C3.13235 2.71354 2.96199 2.78417 2.83634 2.90983C2.71069 3.03548 2.64005 3.20584 2.64005 3.38354L2.64005 12.7635C2.64005 12.9412 2.71069 13.1116 2.83634 13.2372C2.96199 13.3629 3.13235 13.4335 3.31005 13.4335L12.69 13.4335C12.8677 13.4335 13.0381 13.3629 13.1637 13.2372C13.2894 13.1116 13.36 12.9412 13.36 12.7635L13.36 8.07353C13.36 7.70349 13.66 7.40353 14.03 7.40353C14.4001 7.40353 14.7 7.70349 14.7 8.07353L14.7 12.7635C14.7 13.2967 14.4881 13.8077 14.1112 14.1847C13.7342 14.5616 13.2232 14.7735 12.69 14.7735L3.31005 14.7735C2.77696 14.7735 2.26587 14.5616 1.88892 14.1847C1.51197 13.8077 1.30005 13.2966 1.30005 12.7635Z" fill="#171A1F"/>
<path d="M14.0141 2.73302C13.9971 2.56097 13.9208 2.39899 13.7975 2.27567C13.6566 2.13484 13.4654 2.05582 13.2662 2.05582C13.0918 2.05583 12.9236 2.11634 12.7899 2.22594L12.7349 2.27567L6.6964 8.31546C6.61689 8.39485 6.55799 8.49301 6.52631 8.60074L6.13504 9.93746L7.47307 9.54685L7.55226 9.51811C7.60358 9.4958 7.65196 9.46732 7.69618 9.43302L7.75902 9.37741L13.7975 3.33824L13.8472 3.28328C13.9569 3.14958 14.0174 2.98135 14.0174 2.80696L14.0141 2.73302ZM15.3547 2.91099C15.3308 3.39334 15.1404 3.85242 14.8163 4.21042L14.7449 4.28567L8.7064 10.3255C8.46781 10.5639 8.17248 10.738 7.84867 10.8326L7.84927 10.8332L5.92436 11.3959C5.75145 11.4463 5.56755 11.4491 5.39307 11.4044C5.21855 11.3597 5.05919 11.2688 4.93179 11.1414C4.80452 11.0141 4.71349 10.8552 4.66876 10.6808C4.62405 10.5062 4.62683 10.3224 4.67727 10.1494L5.24062 8.22454V8.22387L5.27987 8.10347C5.36593 7.86662 5.49579 7.64787 5.66264 7.459L5.74901 7.36741L11.7875 1.32824L11.8628 1.25693C12.2463 0.909578 12.7463 0.71584 13.2662 0.71582C13.8208 0.71582 14.3528 0.936116 14.7449 1.32824C15.1371 1.7204 15.3573 2.25236 15.3574 2.80696L15.3547 2.91099Z" fill="#171A1F"/>
</g>
<defs>
<clipPath id="clip0_2_526">
<rect width="16" height="16" fill="white" transform="translate(0 0.0732422)"/>
</clipPath>
</defs>
</svg>
