<svg width="16" height="17" viewBox="0 0 16 17" fill="none" xmlns="http://www.w3.org/2000/svg">
<g clip-path="url(#clip0_2_535)">
<path d="M14.03 3.40332C14.4001 3.40332 14.7 3.70329 14.7 4.07332C14.7 4.44335 14.4001 4.74332 14.03 4.74332L1.97005 4.74332C1.60002 4.74332 1.30005 4.44335 1.30005 4.07332C1.30005 3.70329 1.60002 3.40332 1.97005 3.40332L14.03 3.40332Z" fill="#C53443"/>
<path d="M2.64001 13.4235L2.64001 4.04354C2.64001 3.67351 2.93999 3.37354 3.31001 3.37354C3.68004 3.37354 3.98001 3.67351 3.98001 4.04354L3.98001 13.4235C3.98001 13.5407 4.04526 13.7138 4.20247 13.8711C4.3597 14.0283 4.53292 14.0935 4.65001 14.0935L11.35 14.0935C11.4671 14.0935 11.6403 14.0283 11.7976 13.8711C11.9548 13.7138 12.02 13.5407 12.02 13.4235L12.02 4.04354C12.02 3.67351 12.32 3.37354 12.69 3.37354C13.0601 3.37354 13.36 3.67351 13.36 4.04354L13.36 13.4235C13.36 13.9764 13.0903 14.4732 12.745 14.8185C12.3997 15.1638 11.9029 15.4335 11.35 15.4335L4.65001 15.4335C4.09711 15.4335 3.60033 15.1638 3.25505 14.8185C2.90977 14.4732 2.64001 13.9764 2.64001 13.4235Z" fill="#C53443"/>
<path d="M10.01 4.0834L10.01 2.7434C10.01 2.6263 9.94477 2.45308 9.78758 2.29586C9.63034 2.13864 9.45714 2.0734 9.34002 2.0734L6.66002 2.0734C6.54293 2.0734 6.36971 2.13864 6.21248 2.29586C6.05527 2.45308 5.99002 2.6263 5.99002 2.7434L5.99002 4.0834C5.99002 4.45343 5.69005 4.7534 5.32002 4.7534C4.95 4.7534 4.65002 4.45343 4.65002 4.0834L4.65002 2.7434C4.65002 2.19049 4.91978 1.69372 5.26506 1.34844C5.61034 1.00315 6.10712 0.733398 6.66002 0.733398L9.34002 0.733398C9.89291 0.733398 10.3897 1.00315 10.735 1.34844C11.0803 1.69372 11.35 2.19049 11.35 2.7434L11.35 4.0834C11.35 4.45343 11.0501 4.7534 10.68 4.7534C10.31 4.7534 10.01 4.45343 10.01 4.0834Z" fill="#C53443"/>
<path d="M6 11.4136L6 7.39363C6 7.02359 6.29997 6.72363 6.67 6.72363C7.04004 6.72363 7.34 7.02359 7.34 7.39363L7.34 11.4136C7.34 11.7837 7.04004 12.0836 6.67 12.0836C6.29997 12.0836 6 11.7837 6 11.4136Z" fill="#C53443"/>
<path d="M8.66003 11.4136L8.66003 7.39363C8.66003 7.02359 8.95999 6.72363 9.33003 6.72363C9.70008 6.72363 10 7.02359 10 7.39363L10 11.4136C10 11.7837 9.70008 12.0836 9.33003 12.0836C8.95999 12.0836 8.66003 11.7837 8.66003 11.4136Z" fill="#C53443"/>
</g>
<defs>
<clipPath id="clip0_2_535">
<rect width="16" height="16" fill="white" transform="translate(0 0.0732422)"/>
</clipPath>
</defs>
</svg>
