<svg width="20" height="21" viewBox="0 0 20 21" fill="none" xmlns="http://www.w3.org/2000/svg">
<path d="M11.3074 3.09622C12.7326 2.3537 14.5919 2.39997 16.0685 3.56391C16.1407 3.54648 16.2243 3.52432 16.3182 3.49258C16.549 3.41457 16.7972 3.30621 17.0323 3.19106C17.2654 3.07692 17.4741 2.96178 17.6248 2.87495C17.6998 2.83174 17.7597 2.79557 17.7999 2.7712C17.82 2.75902 17.8356 2.74962 17.8453 2.74364C17.8499 2.74079 17.853 2.73838 17.855 2.73716H17.8566C18.1532 2.54983 18.5361 2.56861 18.8123 2.78497C19.0536 2.97426 19.1679 3.27853 19.1186 3.57445L19.0871 3.7009V3.70251L19.0862 3.70414C19.0857 3.70576 19.0847 3.70817 19.0838 3.71062C19.0821 3.7155 19.0801 3.72206 19.0773 3.73008C19.0716 3.74634 19.064 3.76904 19.0538 3.79735C19.0333 3.85419 19.0028 3.93475 18.9638 4.03322C18.8861 4.22966 18.7708 4.50194 18.6194 4.81053C18.3696 5.31921 18.0013 5.96221 17.5154 6.53052C18.5859 15.1827 9.18517 21.4408 1.60678 16.8123L1.24123 16.5804C0.930193 16.3744 0.795595 15.9853 0.911335 15.6305C1.02716 15.2761 1.36482 15.0424 1.73729 15.0591C2.86676 15.1104 3.9845 14.8759 4.94704 14.3945C1.32731 12.3972 -0.26515 7.67281 1.80051 3.87192L1.85481 3.78519C1.99235 3.59293 2.20731 3.46679 2.4457 3.44233C2.7181 3.41453 2.98697 3.52347 3.16385 3.73251C4.63189 5.46729 6.81673 6.55758 9.08001 6.73558C9.08914 5.08152 10.02 3.76703 11.3074 3.09622ZM15.2434 5.04073C14.2723 4.13459 13.0181 4.0777 12.075 4.56899C11.1498 5.05102 10.5213 6.05976 10.8114 7.41401C10.8629 7.65488 10.8053 7.90671 10.6533 8.10054C10.5012 8.29441 10.2706 8.41104 10.0243 8.41828C7.38862 8.49575 4.75864 7.51122 2.80721 5.74428C1.84451 8.88203 3.6459 12.4513 6.91829 13.4332C7.20757 13.5199 7.42731 13.7573 7.49135 14.0523C7.54735 14.3106 7.47659 14.5778 7.30574 14.7738L7.22631 14.8532C6.45339 15.5294 5.5385 16.0249 4.5588 16.3365C10.5436 18.166 16.8912 13.0831 15.8205 6.3911C15.7786 6.12846 15.8652 5.86188 16.0532 5.67376C16.2041 5.52289 16.3444 5.35157 16.4762 5.17204C16.2613 5.22498 16.0343 5.26444 15.81 5.26444C15.5997 5.26444 15.3971 5.18417 15.2434 5.04073Z" fill="#171A1F"/>
</svg>
